<svg height="64px" viewBox="0 0 128 128" width="64px">
  <g>
    <path
      d="M80.53 2.18a2 2 0 0 1 1.42 2.45L74.7 31.67a2 2 0 0 1-3.86-1.03L78.08 3.6a2 2 0 0 1 2.45-1.42z"
      fill="#1a1a1a"
    />
    <path
      d="M80.53 2.18a2 2 0 0 1 1.42 2.45L74.7 31.67a2 2 0 0 1-3.86-1.03L78.08 3.6a2 2 0 0 1 2.45-1.42z"
      fill="#1a1a1a"
      transform="rotate(15 64 64)"
    />
    <path
      d="M80.53 2.18a2 2 0 0 1 1.42 2.45L74.7 31.67a2 2 0 0 1-3.86-1.03L78.08 3.6a2 2 0 0 1 2.45-1.42z"
      fill="#1a1a1a"
      transform="rotate(30 64 64)"
    />
    <path
      d="M80.53 2.18a2 2 0 0 1 1.42 2.45L74.7 31.67a2 2 0 0 1-3.86-1.03L78.08 3.6a2 2 0 0 1 2.45-1.42z"
      fill="#1a1a1a"
      transform="rotate(45 64 64)"
    />
    <path
      d="M80.53 2.18a2 2 0 0 1 1.42 2.45L74.7 31.67a2 2 0 0 1-3.86-1.03L78.08 3.6a2 2 0 0 1 2.45-1.42z"
      fill="#1a1a1a"
      transform="rotate(60 64 64)"
    />
    <path
      d="M80.53 2.18a2 2 0 0 1 1.42 2.45L74.7 31.67a2 2 0 0 1-3.86-1.03L78.08 3.6a2 2 0 0 1 2.45-1.42z"
      fill="#1a1a1a"
      transform="rotate(75 64 64)"
    />
    <path
      d="M80.53 2.18a2 2 0 0 1 1.42 2.45L74.7 31.67a2 2 0 0 1-3.86-1.03L78.08 3.6a2 2 0 0 1 2.45-1.42z"
      fill="#1a1a1a"
      transform="rotate(90 64 64)"
    />
    <path
      d="M80.53 2.18a2 2 0 0 1 1.42 2.45L74.7 31.67a2 2 0 0 1-3.86-1.03L78.08 3.6a2 2 0 0 1 2.45-1.42z"
      fill="#1a1a1a"
      transform="rotate(105 64 64)"
    />
    <path
      d="M80.53 2.18a2 2 0 0 1 1.42 2.45L74.7 31.67a2 2 0 0 1-3.86-1.03L78.08 3.6a2 2 0 0 1 2.45-1.42z"
      fill="#1a1a1a"
      transform="rotate(120 64 64)"
    />
    <path
      d="M80.53 2.18a2 2 0 0 1 1.42 2.45L74.7 31.67a2 2 0 0 1-3.86-1.03L78.08 3.6a2 2 0 0 1 2.45-1.42z"
      fill="#1a1a1a"
      transform="rotate(135 64 64)"
    />
    <path
      d="M80.53 2.18a2 2 0 0 1 1.42 2.45L74.7 31.67a2 2 0 0 1-3.86-1.03L78.08 3.6a2 2 0 0 1 2.45-1.42z"
      fill="#1a1a1a"
      transform="rotate(150 64 64)"
    />
    <path
      d="M80.53 2.18a2 2 0 0 1 1.42 2.45L74.7 31.67a2 2 0 0 1-3.86-1.03L78.08 3.6a2 2 0 0 1 2.45-1.42z"
      fill="#1a1a1a"
      transform="rotate(165 64 64)"
    />
    <path
      d="M80.53 2.18a2 2 0 0 1 1.42 2.45L74.7 31.67a2 2 0 0 1-3.86-1.03L78.08 3.6a2 2 0 0 1 2.45-1.42z"
      fill="#1a1a1a"
      transform="rotate(180 64 64)"
    />
    <path
      d="M80.53 2.18a2 2 0 0 1 1.42 2.45L74.7 31.67a2 2 0 0 1-3.86-1.03L78.08 3.6a2 2 0 0 1 2.45-1.42z"
      fill="#1a1a1a"
      transform="rotate(195 64 64)"
    />
    <path
      d="M80.53 2.18a2 2 0 0 1 1.42 2.45L74.7 31.67a2 2 0 0 1-3.86-1.03L78.08 3.6a2 2 0 0 1 2.45-1.42z"
      fill="#1a1a1a"
      transform="rotate(210 64 64)"
    />
    <path
      d="M80.53 2.18a2 2 0 0 1 1.42 2.45L74.7 31.67a2 2 0 0 1-3.86-1.03L78.08 3.6a2 2 0 0 1 2.45-1.42z"
      fill="#333333"
      transform="rotate(225 64 64)"
    />
    <path
      d="M80.53 2.18a2 2 0 0 1 1.42 2.45L74.7 31.67a2 2 0 0 1-3.86-1.03L78.08 3.6a2 2 0 0 1 2.45-1.42z"
      fill="#4d4d4d"
      transform="rotate(240 64 64)"
    />
    <path
      d="M80.53 2.18a2 2 0 0 1 1.42 2.45L74.7 31.67a2 2 0 0 1-3.86-1.03L78.08 3.6a2 2 0 0 1 2.45-1.42z"
      fill="#666666"
      transform="rotate(255 64 64)"
    />
    <path
      d="M80.53 2.18a2 2 0 0 1 1.42 2.45L74.7 31.67a2 2 0 0 1-3.86-1.03L78.08 3.6a2 2 0 0 1 2.45-1.42z"
      fill="#808080"
      transform="rotate(270 64 64)"
    />
    <path
      d="M80.53 2.18a2 2 0 0 1 1.42 2.45L74.7 31.67a2 2 0 0 1-3.86-1.03L78.08 3.6a2 2 0 0 1 2.45-1.42z"
      fill="#999999"
      transform="rotate(285 64 64)"
    />
    <path
      d="M80.53 2.18a2 2 0 0 1 1.42 2.45L74.7 31.67a2 2 0 0 1-3.86-1.03L78.08 3.6a2 2 0 0 1 2.45-1.42z"
      fill="#b3b3b3"
      transform="rotate(300 64 64)"
    />
    <path
      d="M80.53 2.18a2 2 0 0 1 1.42 2.45L74.7 31.67a2 2 0 0 1-3.86-1.03L78.08 3.6a2 2 0 0 1 2.45-1.42z"
      fill="#cccccc"
      transform="rotate(315 64 64)"
    />
    <path
      d="M80.53 2.18a2 2 0 0 1 1.42 2.45L74.7 31.67a2 2 0 0 1-3.86-1.03L78.08 3.6a2 2 0 0 1 2.45-1.42z"
      fill="#e6e6e6"
      transform="rotate(330 64 64)"
    />
    <path
      d="M64 0a2 2 0 0 1 2 2v60a2 2 0 0 1-4 0V2a2 2 0 0 1 2-2z"
      fill="#ffffff"
    />
    <animateTransform
      attributeName="transform"
      type="rotate"
      values="0 64 64;15 64 64;30 64 64;45 64 64;60 64 64;75 64 64;90 64 64;105 64 64;120 64 64;135 64 64;150 64 64;165 64 64;180 64 64;195 64 64;210 64 64;225 64 64;240 64 64;255 64 64;270 64 64;285 64 64;300 64 64;315 64 64;330 64 64;345 64 64"
      calcMode="discrete"
      dur="960ms"
      repeatCount="indefinite"
    ></animateTransform>
  </g>
</svg>
